<mxfile host="app.diagrams.net" modified="2021-01-27T08:03:27.816Z" agent="5.0 (Windows NT 10.0; Win64; x64) AppleWebKit/537.36 (KHTML, like Gecko) Chrome/88.0.4324.104 Safari/537.36" etag="-TsmYhSJwQfH3VjFJBHc" version="14.2.7" type="github">
  <diagram id="VNL0Xei-qq2bv011p0-M" name="Page-1">
    <mxGraphModel dx="782" dy="482" grid="1" gridSize="10" guides="1" tooltips="1" connect="1" arrows="1" fold="1" page="1" pageScale="1" pageWidth="827" pageHeight="1169" math="0" shadow="0">
      <root>
        <mxCell id="0" />
        <mxCell id="1" parent="0" />
        <mxCell id="8PksYEBEN8A2BfgbqcRJ-1" value="" style="verticalLabelPosition=bottom;verticalAlign=top;html=1;shadow=0;dashed=0;strokeWidth=1;shape=mxgraph.android.phone2;strokeColor=#c0c0c0;" vertex="1" parent="1">
          <mxGeometry x="280" y="40" width="200" height="390" as="geometry" />
        </mxCell>
        <mxCell id="8PksYEBEN8A2BfgbqcRJ-6" value="SFILATA A ROMA" style="text;html=1;align=center;verticalAlign=middle;resizable=0;points=[];autosize=1;" vertex="1" parent="1">
          <mxGeometry x="290" y="100" width="110" height="20" as="geometry" />
        </mxCell>
        <mxCell id="8PksYEBEN8A2BfgbqcRJ-7" value="27/01/2021:15:00" style="text;html=1;align=center;verticalAlign=middle;resizable=0;points=[];autosize=1;" vertex="1" parent="1">
          <mxGeometry x="370" y="130" width="110" height="20" as="geometry" />
        </mxCell>
        <mxCell id="8PksYEBEN8A2BfgbqcRJ-9" value="SFILATA A MILANO&amp;nbsp;" style="text;html=1;align=center;verticalAlign=middle;resizable=0;points=[];autosize=1;" vertex="1" parent="1">
          <mxGeometry x="290" y="180" width="120" height="20" as="geometry" />
        </mxCell>
        <mxCell id="8PksYEBEN8A2BfgbqcRJ-10" value="3/02/2021:17:00" style="text;html=1;align=center;verticalAlign=middle;resizable=0;points=[];autosize=1;" vertex="1" parent="1">
          <mxGeometry x="375" y="200" width="100" height="20" as="geometry" />
        </mxCell>
        <mxCell id="8PksYEBEN8A2BfgbqcRJ-11" value="SFILATA A TORINO" style="text;html=1;align=center;verticalAlign=middle;resizable=0;points=[];autosize=1;" vertex="1" parent="1">
          <mxGeometry x="290" y="280" width="120" height="20" as="geometry" />
        </mxCell>
        <mxCell id="8PksYEBEN8A2BfgbqcRJ-12" value="8/02/2021:19:00&lt;br&gt;" style="text;html=1;align=center;verticalAlign=middle;resizable=0;points=[];autosize=1;" vertex="1" parent="1">
          <mxGeometry x="375" y="300" width="100" height="20" as="geometry" />
        </mxCell>
        <mxCell id="8PksYEBEN8A2BfgbqcRJ-15" value="" style="shape=singleArrow;whiteSpace=wrap;html=1;" vertex="1" parent="1">
          <mxGeometry x="405" y="220" width="60" height="30" as="geometry" />
        </mxCell>
        <mxCell id="8PksYEBEN8A2BfgbqcRJ-16" value="" style="shape=singleArrow;whiteSpace=wrap;html=1;" vertex="1" parent="1">
          <mxGeometry x="410" y="150" width="60" height="30" as="geometry" />
        </mxCell>
        <mxCell id="8PksYEBEN8A2BfgbqcRJ-23" value="" style="shape=singleArrow;whiteSpace=wrap;html=1;" vertex="1" parent="1">
          <mxGeometry x="410" y="320" width="60" height="30" as="geometry" />
        </mxCell>
      </root>
    </mxGraphModel>
  </diagram>
</mxfile>
